# xmcd
#
# Track frame offsets:
#	150
#	25025
#	46677
#	72215
#	93905
#	115245
#	138752
#	160237
#	182197
#	204865
#	230520
#	257058
#	272671
#	297056
#	320463
#
# Disc length: 4536 seconds
#
# Revision: 0
# Processed by: cddbd v1.5.2PL0 Copyright (c) Steve Scherf et al.
# Submitted via: EasyCDDAExtractor 11.6.0.1
#
DISCID=c611b60f
DTITLE=Various Artist - TEARS
DYEAR=2007
DGENRE=JPOP
TTITLE0=山崎まさよし - One more time, One more chance
TTITLE1=RUI - 月のしずく
TTITLE2=徳永英明 - 雪の華
TTITLE3=AI - Story
TTITLE4=森山直太郎 - 愛し君へ
TTITLE5=鬼束ちひろ - 流星群
TTITLE6=スガ シカオ - 愛について
TTITLE7=I WISH - 明日への扉
TTITLE8=松たか子 - 夢のしずく
TTITLE9=キンモクセイ - 二人のアカボシ
TTITLE10=Chara - FANTASY
TTITLE11=矢井田瞳 - I'm here saying nothing
TTITLE12=globe - DEPARTURES
TTITLE13=MY LITTLE LOVER - Hello, Again
TTITLE14=大黒摩季 - ら・ら・ら
EXTD=
EXTT0=
EXTT1=
EXTT2=
EXTT3=
EXTT4=
EXTT5=
EXTT6=
EXTT7=
EXTT8=
EXTT9=
EXTT10=
EXTT11=
EXTT12=
EXTT13=
EXTT14=
PLAYORDER=
